#N canvas 321 99 450 300 10;
#X obj 143 156 int;
#X obj 139 99 / 100;
#X obj 140 118 * 127;
#X obj 120 42 inlet;
#X obj 211 42 inlet;
#X obj 143 208 outlet;
#X floatatom 228 161 5 0 0 0 - - -;
#X connect 0 0 5 0;
#X connect 1 0 2 0;
#X connect 2 0 0 1;
#X connect 2 0 6 0;
#X connect 3 0 1 0;
#X connect 4 0 0 0;
